<svg xmlns="http://www.w3.org/2000/svg" width="378" height="253" viewBox="0 0 378 253" version="1.1"><path d="M 189 11.742 C 179.719 13.350, 142.836 13.869, 97 13.037 C 67.129 12.495, 60.675 13.412, 47.033 20.138 C 33.184 26.965, 24.580 38.084, 21.891 52.629 C 18.177 72.720, 32.276 91.515, 52.632 93.610 C 62.515 94.626, 81 89.840, 81 86.265 C 81 84.340, 74.140 73, 72.976 73 C 72.493 73, 69.576 73.657, 66.494 74.460 C 48.925 79.036, 37.272 65.236, 45.311 49.373 C 49.464 41.177, 58.136 36.060, 70.500 34.509 C 77.021 33.691, 114.017 33.683, 114.833 34.500 C 115.653 35.320, 113.606 44.270, 107.512 66.500 C 104.346 78.050, 100.573 91.978, 99.128 97.452 L 96.500 107.403 87.541 108.691 C 82.613 109.399, 76.526 110.661, 74.014 111.495 C 67.929 113.516, 61.974 117.663, 62.108 119.786 C 62.167 120.729, 64.646 123.709, 67.617 126.409 L 73.018 131.318 78.467 128.561 C 81.464 127.045, 85.397 125.736, 87.208 125.652 C 90.251 125.511, 90.484 125.719, 90.292 128.396 C 90.026 132.088, 82.688 147.829, 77.889 155 C 64.369 175.204, 43.741 182.830, 25.161 174.492 L 19.001 171.727 15.250 174.378 C 13.188 175.835, 9.925 178.380, 8 180.032 L 4.500 183.036 7.793 185.877 C 16.029 192.981, 29.009 197.102, 43.236 197.131 C 73.755 197.192, 94.764 178.106, 109.426 137 L 113.528 125.500 124.014 124.805 C 135.665 124.033, 141.464 122.824, 146.951 120.025 C 153.717 116.573, 153.717 115.880, 146.962 109.625 C 143.620 106.531, 140.293 104, 139.569 104 C 138.844 104, 136.338 104.675, 134 105.500 C 129.832 106.970, 120.888 107.555, 119.764 106.430 C 119.270 105.936, 121.271 97.598, 126.469 78.500 C 127.217 75.750, 129.899 65.850, 132.427 56.500 C 134.956 47.150, 137.429 38.555, 137.922 37.401 C 138.780 35.393, 139.736 35.274, 159.660 34.689 C 177.049 34.178, 195.077 32.300, 196.466 30.853 C 196.876 30.427, 201.998 11.815, 201.999 10.750 C 202 9.759, 199.231 9.970, 189 11.742 M 206.145 88.028 C 203.750 88.525, 198.897 90.522, 195.361 92.466 C 191.825 94.410, 188.508 96, 187.991 96 C 187.473 96, 187.320 94.650, 187.650 93 L 188.250 90 178.144 90 C 168.489 90, 168.014 90.100, 167.504 92.250 C 164.314 105.685, 157.218 132.484, 144.068 180.767 C 142.381 186.963, 141 192.717, 141 193.553 C 141 194.827, 142.558 195.026, 150.645 194.786 L 160.290 194.500 165.605 174.626 C 171.288 153.376, 174.385 144.344, 179.537 134 C 187.537 117.935, 201.070 105, 209.879 105 C 217.377 105, 217.735 111.018, 211.497 132.205 C 204.915 154.557, 194 193.217, 194 194.174 C 194 194.628, 198.285 195, 203.521 195 C 214.772 195, 213.020 197.238, 219.565 174.500 C 225.900 152.487, 227.500 147.883, 232.478 137.322 C 244.180 112.500, 260.827 98.655, 268.034 107.750 C 271.092 111.609, 270.284 117.691, 263.933 138.612 C 261.113 147.900, 257.955 159.550, 256.916 164.500 C 254.554 175.748, 254.361 194.066, 256.515 202.540 C 261.958 223.954, 277.564 239.943, 299.556 246.642 C 308.190 249.271, 323.341 249.087, 332.500 246.240 C 365.160 236.088, 381.249 200.573, 366.358 171.500 C 356.027 151.328, 327.482 145.375, 311.542 160.068 C 305.728 165.427, 302.656 172.031, 302.174 180.206 C 301.746 187.478, 303.915 193.811, 308.139 197.618 C 310.210 199.485, 310.266 199.456, 315.102 194 C 319.389 189.164, 319.980 187.956, 319.993 184 C 320.009 179.135, 322.615 173.812, 325.821 172.096 C 329.158 170.310, 335.661 169.733, 339.220 170.907 C 343.447 172.303, 348.390 177.281, 350.449 182.218 C 352.715 187.650, 352.515 200.633, 350.078 206.318 C 343.179 222.412, 324.557 232.649, 308.820 228.999 C 294.840 225.757, 284.632 217.739, 278.853 205.463 C 271.441 189.719, 272.300 177.765, 283.485 141 C 287.341 128.326, 288.288 123.677, 288.682 115.500 C 289.140 106.009, 289.020 105.220, 286.332 100 C 281.201 90.035, 270.353 85.276, 258.986 88.003 C 254.047 89.188, 245.192 94.393, 239.594 99.400 C 236.109 102.519, 234.354 102.690, 233.498 99.995 C 230.719 91.237, 217.839 85.602, 206.145 88.028" stroke="none" fill="#ffffff" fill-rule="evenodd"/><path d="M 193.500 9.561 C 176.379 12.464, 153.956 13.222, 123.295 11.937 C 76.413 9.972, 61.104 11.375, 45.945 19.028 C 29.505 27.327, 19.255 44.056, 20.216 61.020 C 20.864 72.442, 26.426 82.894, 35.169 89.120 C 45.700 96.619, 65.177 97.071, 78.750 90.132 C 81.087 88.937, 83 87.485, 83 86.905 C 83 85.670, 75.113 72.188, 73.982 71.489 C 73.559 71.227, 71.308 71.686, 68.981 72.507 C 56.172 77.026, 44 70.712, 44 59.548 C 44 53.857, 48.296 45.556, 52.858 42.430 C 54.861 41.058, 59.650 38.938, 63.500 37.718 C 69.813 35.718, 72.578 35.500, 91.667 35.500 C 103.308 35.500, 113.095 35.762, 113.415 36.082 C 113.892 36.559, 106.858 63.939, 97.261 98.964 C 95.276 106.207, 95.817 105.879, 82.602 107.845 C 74.981 108.979, 64.717 113.543, 61.078 117.417 L 58.727 119.920 66.113 126.883 C 72.986 133.361, 73.639 133.744, 75.500 132.393 C 78.680 130.084, 85.337 127.046, 87.269 127.022 C 89.866 126.990, 88.839 130.511, 82.379 143.792 C 73.333 162.388, 61.166 173.272, 46.463 175.923 C 38.959 177.275, 30.508 175.914, 23.777 172.269 C 19.647 170.033, 18.830 169.886, 17.277 171.106 C 10.531 176.404, 3.453 182.401, 3.204 183.030 C 2.689 184.329, 10.260 189.979, 16.600 193.027 C 26.148 197.616, 34.927 199.302, 46 198.672 C 57.549 198.016, 64.425 196.063, 73.067 190.986 C 89.568 181.292, 101.194 164.767, 111.048 137 L 114.774 126.500 126.137 125.919 C 139.127 125.255, 145.894 123.360, 151.355 118.859 L 155.146 115.734 151.323 111.782 C 149.220 109.609, 145.803 106.473, 143.729 104.815 C 140.041 101.865, 139.877 101.832, 136.211 103.299 C 131.764 105.078, 121 106.578, 121 105.418 C 121 104.972, 125.113 89.395, 130.141 70.803 L 139.282 37 148.891 36.984 C 160.020 36.966, 179.146 35.512, 190.108 33.850 L 197.717 32.697 200.874 21.099 C 202.611 14.719, 204.024 9.162, 204.016 8.750 C 203.996 7.830, 203.480 7.869, 193.500 9.561 M 189 11.742 C 179.719 13.350, 142.836 13.869, 97 13.037 C 67.129 12.495, 60.675 13.412, 47.033 20.138 C 33.184 26.965, 24.580 38.084, 21.891 52.629 C 18.177 72.720, 32.276 91.515, 52.632 93.610 C 62.515 94.626, 81 89.840, 81 86.265 C 81 84.340, 74.140 73, 72.976 73 C 72.493 73, 69.576 73.657, 66.494 74.460 C 48.925 79.036, 37.272 65.236, 45.311 49.373 C 49.464 41.177, 58.136 36.060, 70.500 34.509 C 77.021 33.691, 114.017 33.683, 114.833 34.500 C 115.653 35.320, 113.606 44.270, 107.512 66.500 C 104.346 78.050, 100.573 91.978, 99.128 97.452 L 96.500 107.403 87.541 108.691 C 82.613 109.399, 76.526 110.661, 74.014 111.495 C 67.929 113.516, 61.974 117.663, 62.108 119.786 C 62.167 120.729, 64.646 123.709, 67.617 126.409 L 73.018 131.318 78.467 128.561 C 81.464 127.045, 85.397 125.736, 87.208 125.652 C 90.251 125.511, 90.484 125.719, 90.292 128.396 C 90.026 132.088, 82.688 147.829, 77.889 155 C 64.369 175.204, 43.741 182.830, 25.161 174.492 L 19.001 171.727 15.250 174.378 C 13.188 175.835, 9.925 178.380, 8 180.032 L 4.500 183.036 7.793 185.877 C 16.029 192.981, 29.009 197.102, 43.236 197.131 C 73.755 197.192, 94.764 178.106, 109.426 137 L 113.528 125.500 124.014 124.805 C 135.665 124.033, 141.464 122.824, 146.951 120.025 C 153.717 116.573, 153.717 115.880, 146.962 109.625 C 143.620 106.531, 140.293 104, 139.569 104 C 138.844 104, 136.338 104.675, 134 105.500 C 129.832 106.970, 120.888 107.555, 119.764 106.430 C 119.270 105.936, 121.271 97.598, 126.469 78.500 C 127.217 75.750, 129.899 65.850, 132.427 56.500 C 134.956 47.150, 137.429 38.555, 137.922 37.401 C 138.780 35.393, 139.736 35.274, 159.660 34.689 C 177.049 34.178, 195.077 32.300, 196.466 30.853 C 196.876 30.427, 201.998 11.815, 201.999 10.750 C 202 9.759, 199.231 9.970, 189 11.742 M 200.520 88.443 C 197.232 89.829, 193.248 91.919, 191.668 93.088 L 188.795 95.212 189.477 92.106 L 190.159 89 178.579 89 C 172.211 89, 167 89.254, 167 89.564 C 167 89.874, 160.700 113.550, 153 142.177 C 145.300 170.805, 139 194.626, 139 195.113 C 139 195.601, 144.100 196, 150.333 196 L 161.666 196 163.213 189.750 C 166.548 176.277, 171.194 159.190, 173.206 153 C 178.078 138.011, 185.867 124.341, 194.490 115.643 C 200.814 109.263, 204.673 107.008, 209.275 107.004 C 216.616 106.996, 216.304 111.895, 206.970 143.194 C 199.135 169.463, 192 194.477, 192 195.673 C 192 195.853, 197.145 196, 203.433 196 C 213.455 196, 214.930 195.784, 215.389 194.250 C 215.678 193.287, 218.616 183.275, 221.920 172 C 225.224 160.725, 229.054 148.638, 230.433 145.139 C 238.489 124.687, 253.456 106.667, 262.386 106.667 C 269.726 106.667, 269.669 115.554, 262.171 140.138 C 255.288 162.701, 254.102 168.270, 253.399 181.307 C 252.269 202.259, 258.115 218.269, 271.906 231.987 C 285.390 245.400, 298.578 250.538, 317.500 249.752 C 330.729 249.203, 338.455 246.838, 348.225 240.347 C 364.372 229.620, 373.014 213.395, 372.989 193.856 C 372.972 180.646, 368.536 169.355, 360.242 161.407 C 344.325 146.157, 319.195 147.140, 306.773 163.500 C 302.197 169.527, 300.564 174.510, 300.545 182.512 C 300.530 188.870, 303.322 195.267, 307.933 199.439 L 310.073 201.376 315.888 194.956 C 321.274 189.007, 321.672 188.240, 321.296 184.518 C 320.803 179.635, 323.673 174.464, 327.750 172.887 C 331.778 171.331, 339.261 172.338, 342.895 174.925 C 348.251 178.739, 350.420 184.224, 350.440 194 C 350.454 201.117, 350.031 203.395, 347.844 208 C 337.099 230.618, 304.531 234.731, 287.364 215.638 C 282.340 210.050, 280.132 206.120, 277.506 198.098 C 276.058 193.674, 275.841 190.594, 276.307 181.098 C 276.899 169.027, 277.438 166.603, 285.548 139.500 C 289.737 125.500, 290.346 122.312, 290.418 114 C 290.492 105.463, 290.219 103.967, 287.728 99.241 C 282.874 90.028, 273.811 85.301, 262.887 86.282 C 255.718 86.925, 249.044 89.892, 241.578 95.753 C 236.152 100.013, 235.566 100.251, 234.578 98.593 C 229.780 90.540, 223.457 86.828, 213.644 86.305 C 207.703 85.988, 205.493 86.348, 200.520 88.443 M 206.145 88.028 C 203.750 88.525, 198.897 90.522, 195.361 92.466 C 191.825 94.410, 188.508 96, 187.991 96 C 187.473 96, 187.320 94.650, 187.650 93 L 188.250 90 178.144 90 C 168.489 90, 168.014 90.100, 167.504 92.250 C 164.314 105.685, 157.218 132.484, 144.068 180.767 C 142.381 186.963, 141 192.717, 141 193.553 C 141 194.827, 142.558 195.026, 150.645 194.786 L 160.290 194.500 165.605 174.626 C 171.288 153.376, 174.385 144.344, 179.537 134 C 187.537 117.935, 201.070 105, 209.879 105 C 217.377 105, 217.735 111.018, 211.497 132.205 C 204.915 154.557, 194 193.217, 194 194.174 C 194 194.628, 198.285 195, 203.521 195 C 214.772 195, 213.020 197.238, 219.565 174.500 C 225.900 152.487, 227.500 147.883, 232.478 137.322 C 244.180 112.500, 260.827 98.655, 268.034 107.750 C 271.092 111.609, 270.284 117.691, 263.933 138.612 C 261.113 147.900, 257.955 159.550, 256.916 164.500 C 254.554 175.748, 254.361 194.066, 256.515 202.540 C 261.958 223.954, 277.564 239.943, 299.556 246.642 C 308.190 249.271, 323.341 249.087, 332.500 246.240 C 365.160 236.088, 381.249 200.573, 366.358 171.500 C 356.027 151.328, 327.482 145.375, 311.542 160.068 C 305.728 165.427, 302.656 172.031, 302.174 180.206 C 301.746 187.478, 303.915 193.811, 308.139 197.618 C 310.210 199.485, 310.266 199.456, 315.102 194 C 319.389 189.164, 319.980 187.956, 319.993 184 C 320.009 179.135, 322.615 173.812, 325.821 172.096 C 329.158 170.310, 335.661 169.733, 339.220 170.907 C 343.447 172.303, 348.390 177.281, 350.449 182.218 C 352.715 187.650, 352.515 200.633, 350.078 206.318 C 343.179 222.412, 324.557 232.649, 308.820 228.999 C 294.840 225.757, 284.632 217.739, 278.853 205.463 C 271.441 189.719, 272.300 177.765, 283.485 141 C 287.341 128.326, 288.288 123.677, 288.682 115.500 C 289.140 106.009, 289.020 105.220, 286.332 100 C 281.201 90.035, 270.353 85.276, 258.986 88.003 C 254.047 89.188, 245.192 94.393, 239.594 99.400 C 236.109 102.519, 234.354 102.690, 233.498 99.995 C 230.719 91.237, 217.839 85.602, 206.145 88.028" stroke="none" fill="#fafafa" fill-rule="evenodd"/></svg>